HIERARCHY
ROOT root
{
	OFFSET	0	13.1	24.9
	CHANNELS 6  Xposition Yposition Zposition Xrotation Yrotation Zrotation
	JOINT spine_1
	{
		OFFSET	0	9.99999	0
		CHANNELS 3  Xrotation Yrotation Zrotation
		JOINT spine_2
		{
			OFFSET	0	112	-10
			CHANNELS 3  Xrotation Yrotation Zrotation
			JOINT spine_3
			{
				OFFSET	0	206.5	19.3
				CHANNELS 3  Xrotation Yrotation Zrotation
				JOINT spine_4
				{
					OFFSET	0	110.4	14.6
					CHANNELS 3  Xrotation Yrotation Zrotation
					JOINT neck_1
					{
						OFFSET	0	71.8	-50.3
						CHANNELS 3  Xrotation Yrotation Zrotation
						JOINT neck_2
						{
							OFFSET	0	86.2	-25.8
							CHANNELS 3  Xrotation Yrotation Zrotation
							JOINT head_ee
							{
								OFFSET	0	179.8	-8.7
								CHANNELS 3  Xrotation Yrotation Zrotation
								End Site
								{
									OFFSET	1	0	0
								}
							}
						}
					}
					JOINT left_clavicle
					{
						OFFSET	-43.2	22.4	-70.8
						CHANNELS 3  Xrotation Yrotation Zrotation
						JOINT left_shoulder
						{
							OFFSET	-93.9	-5.79999	48.7
							CHANNELS 3  Xrotation Yrotation Zrotation
							JOINT left_elbow
							{
								OFFSET	-291.4	-30.8	15.2
								CHANNELS 3  Xrotation Yrotation Zrotation
								JOINT left_lowarm_twist
								{
									OFFSET	-110.7	-3.89999	13.6
									CHANNELS 3  Xrotation Yrotation Zrotation
									JOINT left_hand
									{
										OFFSET	-110.7	-3.89999	13.6
										CHANNELS 3  Xrotation Yrotation Zrotation
										JOINT left_ee
										{
											OFFSET	-80.8	-5.10001	12.1
											CHANNELS 3  Xrotation Yrotation Zrotation
											End Site
											{
												OFFSET	1	0	0
											}
										}
									}
								}
							}
						}
					}
					JOINT right_clavicle
					{
						OFFSET	43.2	22.4	-70.8
						CHANNELS 3  Xrotation Yrotation Zrotation
						JOINT right_shoulder
						{
							OFFSET	93.9	-5.79999	48.7
							CHANNELS 3  Xrotation Yrotation Zrotation
							JOINT right_elbow
							{
								OFFSET	291.4	-30.8	15.2
								CHANNELS 3  Xrotation Yrotation Zrotation
								JOINT right_lowarm_twist
								{
									OFFSET	110.7	-3.89999	13.6
									CHANNELS 3  Xrotation Yrotation Zrotation
									JOINT right_hand
									{
										OFFSET	110.7	-3.89999	13.6
										CHANNELS 3  Xrotation Yrotation Zrotation
										JOINT right_ee
										{
											OFFSET	80.8	-5.10001	12.1
											CHANNELS 3  Xrotation Yrotation Zrotation
											End Site
											{
												OFFSET	1	0	0
											}
										}
									}
								}
							}
						}
					}
				}
			}
		}
	}
	JOINT left_hip
	{
		OFFSET	-82.8	-127.5	0.300001
		CHANNELS 3  Xrotation Yrotation Zrotation
		JOINT left_knee
		{
			OFFSET	-28.2	-396.7	2.2
			CHANNELS 3  Xrotation Yrotation Zrotation
			JOINT left_ankle
			{
				OFFSET	-11.7	-411.3	35.4
				CHANNELS 3  Xrotation Yrotation Zrotation
				JOINT left_toes
				{
					OFFSET	0	-60	-88.6
					CHANNELS 3  Xrotation Yrotation Zrotation
					JOINT left_foot_ee
					{
						OFFSET	-22.5	-16.5	-42.2
						CHANNELS 3  Xrotation Yrotation Zrotation
						End Site
						{
							OFFSET	1	0	0
						}
					}
				}
			}
		}
	}
	JOINT right_hip
	{
		OFFSET	82.8	-127.5	0.300001
		CHANNELS 3  Xrotation Yrotation Zrotation
		JOINT right_knee
		{
			OFFSET	28.2	-396.7	2.2
			CHANNELS 3  Xrotation Yrotation Zrotation
			JOINT right_ankle
			{
				OFFSET	11.7	-411.3	35.4
				CHANNELS 3  Xrotation Yrotation Zrotation
				JOINT right_toes
				{
					OFFSET	0	-60	-88.6
					CHANNELS 3  Xrotation Yrotation Zrotation
					JOINT right_foot_ee
					{
						OFFSET	22.5	-16.5	-42.2
						CHANNELS 3  Xrotation Yrotation Zrotation
						End Site
						{
							OFFSET	1	0	0
						}
					}
				}
			}
		}
	}
}
MOTION
Frames: 15
Frame Time: 0.02
2113.45 719.651 -1547.16 -147.986 65.544 142.827 4.51597 0.954838 3.5308 4.52261 0.728378 3.58431 4.56329 0.250716 3.64888 4.54566 0.823475 3.56369 -6.94429 -7.10352 -4.19299 -6.90331 -10.1652 -5.61903 -0.0 0.0 -0.0 -4.63853 -3.39198 -9.71953 -43.8215 -38.4276 60.8267 0.783762 -21.2188 0.146812 -9.04847 -0.405256 1.0823 2.4173 13.0627 21.0917 -0.0 0.0 -0.0 9.63908 -11.7685 -17.9959 2.4547 21.5362 -52.4549 3.28134 58.3868 -1.83373 37.2485 0.21394 4.6707 -1.15795 -9.55303 3.47741 0.0 0.0 0.0 46.8281 -0.655057 13.0736 3.06721 -0.138406 -0.450227 -21.3161 -19.4006 3.63367 -21.5946 0.0 0.0 -0.0 0.0 -0.0 -7.71334 -4.32354 -7.92363 1.10042 0.0468757 0.162354 29.5107 -13.1204 3.8636 -13.5221 0.0 0.0 0.0 0.0 0.0 
2099.93 713.475 -1545.84 -147.386 64.9384 142.112 4.63854 1.00455 3.68838 4.64578 0.767987 3.74472 4.69037 0.277453 3.81248 4.67116 0.875663 3.72104 -6.70598 -8.1875 -3.23449 -6.68027 -12.8471 -4.86081 -0.0 0.0 -0.0 -4.37674 -3.62769 -9.22948 -43.6454 -38.3353 60.5691 0.751435 -20.4172 0.135323 -10.4219 -0.481547 1.24056 2.02551 12.8573 18.3836 -0.0 0.0 -0.0 10.0287 -12.6187 -18.6004 1.21524 21.0706 -53.1461 3.53898 60.2839 -2.05537 37.1721 0.210404 4.66159 -0.916726 -8.14251 2.54689 0.0 0.0 0.0 47.6266 -1.56059 12.9419 -0.176286 0.0072189 0.0260896 -18.2945 -15.5947 3.01598 -22.7504 0.0 0.0 -0.0 0.0 -0.0 -8.13304 -4.17833 -8.0584 0.487567 0.0203839 0.0720436 31.2686 -9.9788 4.03183 -14.5536 0.0 0.0 0.0 0.0 0.0 
2081.62 713.589 -1537.24 -147.417 65.3713 142.506 4.73664 1.00472 3.78682 4.7443 0.761897 3.84296 4.78925 0.265462 3.90866 4.76901 0.878979 3.81792 -6.49161 -8.59799 -2.58132 -6.47003 -14.0594 -4.26773 -0.0 0.0 -0.0 -4.2023 -4.00957 -8.94418 -43.3539 -38.1603 60.1175 0.763035 -20.7058 0.139397 -10.6662 -0.49552 1.26853 1.96668 12.5489 17.8878 -0.0 0.0 -0.0 10.3117 -13.751 -18.9582 -0.787471 20.0771 -53.5463 3.55281 60.3799 -2.06739 37.2892 0.215826 4.67555 -0.87315 -7.56962 2.51587 0.0 0.0 0.0 47.8083 -2.88139 13.4455 -3.51198 0.128584 0.523557 -18.3716 -15.4537 3.02543 -22.9303 0.0 0.0 -0.0 0.0 -0.0 -8.58108 -3.77874 -7.76248 -0.35682 -0.0145281 -0.0528305 30.6386 -9.11906 3.96154 -14.6741 0.0 0.0 0.0 0.0 0.0 
2063.99 722.143 -1538.57 -147.361 64.1384 142.474 4.87354 0.938469 3.97708 4.88208 0.683707 4.02862 4.92297 0.17358 4.08245 4.90065 0.815628 4.00404 -6.43636 -8.66651 -2.05537 -6.41805 -14.5638 -3.74863 -0.0 0.0 -0.0 -3.99872 -4.04184 -8.53393 -43.0486 -38.0043 60.0662 0.779558 -21.115 0.145294 -11.0136 -0.515586 1.30818 1.88741 12.0271 17.1829 -0.0 0.0 -0.0 10.1235 -15.4359 -18.3843 -2.74268 19.05 -53.3038 3.51936 60.1467 -2.03834 37.4602 0.223794 4.69591 -0.819212 -6.76501 2.51708 0.0 0.0 0.0 47.1569 -4.07571 12.8953 -8.28204 0.251365 1.24508 -18.4976 -15.781 3.05423 -22.4977 0.0 0.0 -0.0 0.0 -0.0 -8.97336 -3.24837 -7.15931 -1.46704 -0.0576197 -0.21776 29.849 -9.51358 3.87853 -14.8262 0.0 0.0 0.0 0.0 0.0 
2044.42 717.625 -1529.88 -147.522 64.3623 142.086 5.00044 0.99453 4.25615 5.01023 0.721943 4.31067 5.05594 0.18644 4.36662 5.0304 0.873089 4.28267 -6.64202 -8.54614 -1.89808 -6.62929 -14.4771 -3.59066 -0.0 0.0 -0.0 -3.86994 -4.35406 -8.32699 -42.8239 -37.711 59.4306 0.803439 -21.7024 0.154011 -10.9378 -0.511183 1.29953 1.79017 11.2797 16.2781 -0.0 0.0 -0.0 9.87991 -15.3636 -17.9718 -4.79007 18.5548 -52.9079 3.49055 59.9432 -2.01338 37.7061 0.235356 4.72514 -0.785413 -6.6358 2.35307 0.0 0.0 0.0 47.7988 -4.62182 13.4636 -9.77744 0.27744 1.47306 -19.0737 -16.2524 3.162 -21.8722 0.0 0.0 -0.0 0.0 -0.0 -9.58398 -3.31647 -7.49287 -2.76226 -0.103836 -0.41116 28.8106 -9.84862 3.7669 -14.9825 0.0 0.0 0.0 0.0 0.0 
2031.6 715.82 -1524.76 -146.448 64.032 141.105 5.14094 1.05814 4.44581 5.1516 0.773397 4.50397 5.20256 0.225605 4.5642 5.17474 0.942877 4.47163 -7.023 -8.47321 -2.10662 -7.01648 -14.2315 -3.82668 -0.0 0.0 -0.0 -3.62414 -4.8385 -7.90931 -42.4081 -37.6381 59.0957 0.833934 -22.4457 0.165472 -10.8247 -0.504641 1.28662 1.69675 10.1885 15.2726 -0.0 0.0 -0.0 9.80571 -14.8378 -17.9146 -6.10267 18.4593 -52.5986 3.46075 59.7301 -1.98761 38.0984 0.254065 4.77169 -0.74111 -6.44948 2.14509 0.0 0.0 0.0 47.6828 -5.28008 14.1142 -9.47878 0.272708 1.42748 -19.878 -16.7912 3.31077 -20.9797 0.0 0.0 -0.0 0.0 -0.0 -9.31473 -3.45562 -7.52168 -3.05758 -0.11376 -0.455395 27.3533 -10.1485 3.60622 -15.1433 0.0 0.0 0.0 0.0 0.0 
2013.83 713.202 -1521.13 -144.96 63.6779 139.4 5.1382 1.1084 4.38085 5.1485 0.827671 4.44234 5.20315 0.287118 4.50952 5.17616 0.995014 4.40794 -7.63258 -8.40596 -2.54161 -7.63303 -13.8614 -4.31131 -0.0 0.0 -0.0 -3.27367 -5.69604 -7.33611 -41.9165 -37.5421 58.5002 0.877407 -23.4915 0.182437 -10.6234 -0.493063 1.26363 1.57062 8.63815 13.8727 -0.0 0.0 -0.0 9.77892 -14.0256 -17.9744 -7.78992 18.4356 -52.2484 3.41717 59.4134 -1.95004 38.6421 0.280526 4.83599 -0.677916 -6.17939 1.8495 0.0 0.0 0.0 47.5242 -6.21883 15.0454 -8.54919 0.25646 1.28576 -21.0871 -17.5656 3.53595 -19.7106 0.0 0.0 -0.0 0.0 -0.0 -8.92346 -3.6699 -7.57693 -3.18467 -0.11796 -0.474448 25.2703 -10.6096 3.37007 -15.3718 0.0 0.0 0.0 0.0 0.0 
1999.15 712.229 -1521.58 -146.142 63.1654 140.671 5.09887 1.18398 4.27307 5.10857 0.909935 4.33957 5.1686 0.37872 4.41759 5.14297 1.071 4.30272 -8.42475 -8.37057 -3.31886 -8.42666 -13.3384 -5.15379 -0.0 0.0 -0.0 -2.77439 -6.83596 -6.49205 -41.28 -37.398 57.68 0.924527 -24.6066 0.20164 -10.3799 -0.479161 1.23575 1.39674 6.54765 11.9336 -0.0 0.0 -0.0 9.63069 -12.8284 -17.8586 -10.2895 18.2165 -51.4251 3.35567 58.9561 -1.89722 39.4463 0.320775 4.93062 -0.59061 -5.79253 1.4455 0.0 0.0 0.0 47.4367 -7.45408 15.5696 -6.11405 0.203015 0.915921 -22.8159 -18.6405 3.8621 -17.9427 0.0 0.0 -0.0 0.0 -0.0 -8.40284 -4.18133 -7.14341 -3.2907 -0.121433 -0.49035 22.1395 -11.4948 3.00186 -15.6996 0.0 0.0 0.0 0.0 0.0 
1987.94 724.511 -1513.73 -145.476 61.4174 139.995 5.16228 1.14492 4.21709 5.17174 0.874506 4.28124 5.22824 0.355032 4.35506 5.20328 1.03776 4.24468 -9.33329 -8.24856 -4.42032 -9.32243 -12.4607 -6.29323 -0.0 0.0 -0.0 -1.90463 -8.81372 -4.98571 -40.2798 -37.3786 56.3943 0.996924 -26.2818 0.232747 -10.032 -0.459505 1.19582 1.15199 3.60074 9.15761 -0.0 0.0 -0.0 9.37036 -11.1099 -17.5774 -13.0971 17.9222 -49.9873 3.19399 57.6933 -1.75962 40.6591 0.38399 5.07228 -0.500858 -5.2358 1.09637 0.0 0.0 0.0 46.7869 -8.70272 15.8091 -2.47528 0.0939735 0.368221 -24.7582 -20.2018 4.25003 -15.2318 0.0 0.0 -0.0 0.0 -0.0 -7.0707 -4.9401 -6.33925 -3.1654 -0.117326 -0.471558 18.0979 -12.6814 2.50326 -16.0206 0.0 0.0 0.0 0.0 0.0 
1966.64 719.604 -1508.64 -147.13 61.6507 141.972 5.11239 1.08579 4.17596 5.12171 0.818107 4.23644 5.17365 0.300136 4.30413 5.14913 0.975523 4.20304 -9.45639 -8.20333 -5.04956 -9.42787 -11.9608 -6.90607 -0.0 0.0 -0.0 -1.223 -9.99163 -3.72791 -38.7405 -37.8988 56.2315 1.01631 -26.7224 0.241398 -10.3393 -0.476851 1.23109 1.15454 3.35975 9.07963 -0.0 0.0 -0.0 9.09458 -11.0562 -17.0807 -14.8813 17.5273 -50.4148 2.97827 55.8591 -1.57913 40.5983 0.380749 5.06521 -0.556812 -6.23915 1.03269 0.0 0.0 0.0 45.3442 -8.81393 15.4966 -2.0093 0.0775009 0.298604 -23.0909 -21.9029 4.03348 -15.0211 0.0 0.0 -0.0 0.0 -0.0 -5.37958 -5.65587 -6.10541 -10.0686 -0.281824 -1.51753 17.9604 -12.8311 2.4863 -14.8946 0.0 0.0 0.0 0.0 0.0 
1948.05 720.858 -1504.39 -147.827 61.246 143.888 5.10946 1.05295 4.12057 5.11856 0.788844 4.17908 5.16777 0.277495 4.24371 5.14388 0.943648 4.14693 -9.48282 -8.1336 -5.86361 -9.426 -11.2751 -7.68287 -0.0 0.0 -0.0 -0.552445 -11.0977 -2.46853 -37.3321 -38.4033 56.1677 1.02873 -27.0029 0.247009 -10.7834 -0.502262 1.28192 1.15791 3.10455 9.00134 -0.0 0.0 -0.0 8.86338 -11.0189 -16.6648 -16.8334 17.0437 -51.0247 2.70341 53.2411 -1.35517 40.5395 0.377623 5.05837 -0.633426 -7.61634 0.939817 0.0 0.0 0.0 43.1681 -9.05541 15.1959 -1.4119 0.0555551 0.209549 -20.3976 -24.3635 3.6596 -14.7221 0.0 0.0 -0.0 0.0 -0.0 -2.98632 -6.67596 -5.75116 -19.9454 -0.296285 -3.031 17.7627 -13.0678 2.46199 -13.2857 0.0 0.0 0.0 0.0 0.0 
1927.84 723.343 -1494.07 -150.665 61.0058 147.571 5.09118 1.03572 4.03817 5.09992 0.776883 4.09575 5.14751 0.274191 4.15965 5.12457 0.927144 4.06443 -9.46497 -8.04932 -7.01424 -9.36159 -10.3231 -8.77966 -0.0 0.0 -0.0 0.131726 -12.2847 -1.17619 -35.9598 -38.8829 56.036 1.03912 -27.2365 0.251747 -11.4122 -0.538906 1.35352 1.16376 2.77817 8.91127 -0.0 0.0 -0.0 8.55198 -10.9735 -16.106 -19.2609 16.4557 -51.7692 2.36455 49.5043 -1.0903 40.4582 0.373307 5.0489 -0.742266 -9.55409 0.806618 0.0 0.0 0.0 39.9715 -9.3964 14.6937 -1.0437 0.0415657 0.154774 -16.6146 -27.906 3.10777 -14.3413 0.0 0.0 -0.0 0.0 -0.0 0.644814 -8.09821 -5.15271 -33.5311 0.1073 -5.07207 17.5682 -13.3884 2.43841 -10.9633 0.0 0.0 0.0 0.0 0.0 
1916.19 727.86 -1490.16 -150.716 60.7055 148.255 5.01766 1.00625 3.89963 5.0258 0.756268 3.95564 5.07079 0.265279 4.01844 5.04938 0.896095 3.92637 -9.66835 -7.52278 -6.98513 -9.56216 -9.38571 -8.63895 -0.0 0.0 -0.0 0.588476 -13.3952 -0.340523 -33.428 -39.3212 55.8887 1.02998 -27.031 0.247577 -11.6312 -0.551856 1.37838 1.1173 2.88551 8.64236 -0.0 0.0 -0.0 8.36778 -10.987 -15.7733 -21.544 16.1659 -52.9017 2.29413 48.6474 -1.03709 40.275 0.363641 5.02755 -0.811492 -10.539 0.823063 0.0 0.0 0.0 38.1328 -9.39462 14.1708 -0.541094 0.0219017 0.0801483 -14.9394 -28.4837 2.8122 -14.3399 0.0 0.0 -0.0 0.0 -0.0 3.29805 -8.77861 -4.09839 -39.1103 0.41114 -5.87335 16.829 -13.1789 2.34206 -10.5756 0.0 0.0 0.0 0.0 0.0 
1895.81 744.733 -1489.86 -152.821 61.1645 151.308 4.81986 0.951169 3.64513 4.82696 0.717455 3.69817 4.8674 0.244881 3.75907 4.84865 0.835081 3.67343 -9.96096 -6.79795 -7.00399 -9.84821 -8.0547 -8.49837 -0.0 0.0 -0.0 1.12417 -14.8146 0.638285 -30.0194 -39.8665 55.6866 1.01295 -26.6462 0.239887 -11.9301 -0.569686 1.41222 1.0529 3.08179 8.28904 -0.0 0.0 -0.0 8.23249 -11.0668 -15.5243 -24.6073 15.857 -54.8835 2.19973 47.4512 -0.966884 40.0198 0.350295 4.99778 -0.910463 -11.9388 0.842449 0.0 0.0 0.0 35.8984 -9.42056 13.1857 0.252717 -0.0104887 -0.037363 -12.5975 -29.2552 2.39042 -14.3564 0.0 0.0 -0.0 0.0 -0.0 7.08938 -9.6594 -2.49939 -46.9487 0.966931 -6.94219 15.7747 -12.8726 2.20355 -10.0334 0.0 0.0 0.0 0.0 0.0 
1879.82 739.732 -1489.58 -152.975 60.8256 151.552 4.71794 0.908812 3.52539 4.72459 0.682789 3.57598 4.76191 0.21914 3.63391 4.74436 0.789934 3.55388 -10.2706 -6.16631 -6.89178 -10.1576 -6.98815 -8.24894 -0.0 0.0 -0.0 1.78154 -16.0665 1.90457 -27.0285 -40.2406 55.6487 0.977585 -25.8389 0.224251 -12.3934 -0.597665 1.46448 0.982753 3.37106 7.93516 -0.0 0.0 -0.0 8.0169 -11.1639 -15.1317 -25.7644 15.7137 -55.7163 2.07407 45.7698 -0.875557 39.7345 0.335526 4.96441 -1.00809 -13.2303 0.891342 0.0 0.0 0.0 32.9715 -9.4911 11.0464 1.36543 -0.0586306 -0.20132 -10.2629 -29.5579 1.94939 -14.3789 0.0 0.0 -0.0 0.0 -0.0 10.5351 -10.7864 -1.02735 -53.7486 1.56408 -7.80175 14.8113 -12.396 2.07529 -9.10098 0.0 0.0 0.0 0.0 0.0 
